<?xml version="1.0" encoding="utf-8"?>
<!-- Generator: Adobe Illustrator 23.0.2, SVG Export Plug-In . SVG Version: 6.00 Build 0)  -->
<svg version="1.1" id="Layer_1" xmlns="http://www.w3.org/2000/svg" xmlns:xlink="http://www.w3.org/1999/xlink" x="0px" y="0px"
	 viewBox="0 0 699 396.8" style="enable-background:new 0 0 699 396.8;" xml:space="preserve">
<style type="text/css">
	.st0{fill:#FDD300;}
	.st1{fill:#E3000F;}
	.st2{fill:#FFFFFF;}
	.st3{fill:#7F533E;}
</style>
<g>
	<path d="M624.8,121c-13.9,13.3-36.1,30.5-50.1,39.3c-15.9,10-37.6,23.1-60.2,35.3c-3.1,1.7-4.3,5.7-2.6,8.7
		c8.9,15.5,12.3,33.9,15.7,50.3c1.7,8.1,2.8,16.4,3.4,24.7c0,0,2.4,38.6,4.6,71.9c3.6,3.7,8.7,5.6,15.5,0.3c14.9-11.7,19-3.9,19-3.9
		s2.1,1.1,3.7-1.1c1.7-2.2,7.1-3.5,10.6,1.1c3.5,4.7,11.9,0.2,11.9,0.2s4.1-0.6,6.9,7.5c1.5,4.3,6.5,6.8,10.8,8.1
		c4.6,1.5,7.9,5.6,8.4,10.5c0.1,1.1,0.2,2.2,0.3,3.3c0.3,4.8,0.6,10.1-1.2,14.6c-0.7,1.9-1.9,3.4-3.8,4.3c-1,0.5-1.8,0.4-2.9,0.4
		c-1.1,0-2.2,0-3.4,0c-7.7,0.1-15.3,0-23,0c-4.3,0-8.6,0-12.8,0c-5,0-10,0-15,0c-5.6,0-11.3,0-16.9,0c-6.2,0-12.5,0-18.7,0
		c-6.7,0-13.5,0-20.2,0c-7.2,0-14.4,0-21.6,0c-7.6,0-15.1,0-22.7,0c-7.9,0-15.8,0-23.6,0c-8.1,0-16.2,0-24.4,0c-8.3,0-16.6,0-24.9,0
		c-8.4,0-16.8,0-25.2,0c-8.4,0-16.9,0-25.3,0c-8.4,0-16.8,0-25.2,0c-8.3,0-16.6,0-24.9,0c-8.1,0-16.3,0-24.4,0c-7.9,0-15.8,0-23.7,0
		c-7.6,0-15.2,0-22.8,0c-7.2,0-14.5,0-21.7,0c-6.8,0-13.6,0-20.4,0c-6.3,0-12.6,0-18.9,0c-5.7,0-11.4,0-17.2,0c-5.1,0-10.2,0-15.2,0
		c-4.4,0-8.7,0-13.1,0c-3.6,0-7.2,0-10.8,0c-4.8,0-9.6,0-14.4,0.1c-2.7,0.1-5.8-0.2-7.6-2.4c-1.3-1.7-2-3.8-2.3-5.9
		c-0.8-4.8-0.4-9.8,0.1-14.6c0.5-4.8,3.8-9,8.4-10.5c4.3-1.4,9.3-3.8,10.8-8.1c2.8-8,6.9-7.5,6.9-7.5s8.4,4.5,11.9-0.2
		c3.5-4.7,9-3.4,10.6-1.1c1.7,2.2,3.7,1.1,3.7,1.1s4.1-7.8,19,3.9c5.2,4.1,9.4,3.9,12.7,2c6.7-21.9,7.9-72.6,8.9-82.3
		c2.3-22.2,8.9-47.5,18.6-66.4c0,0,0,0,0-0.1c1.8-3.5,0.5-7.9-3-9.8c-22.2-12.1-43.5-24.9-59.1-34.7c-13.9-8.8-36.2-26-50.1-39.3
		C45.2,93.3-11.1,13.9,1.9,0.1c0,0,122.2-8.4,240.6,137c5.6,6.9,15.4,9,23.4,5.1c2.8-1.4,5.7-2.7,8.5-3.9
		c19.5-8.4,40.5-13.4,61.7-14.8c24.3-1.6,48.8,1.3,72,8.9c8.4,2.8,16.7,6.2,24.6,10.1c8,4,17.8,1.9,23.5-5
		C574.7-8.4,697,0.1,697,0.1C710.1,13.9,653.8,93.3,624.8,121z"/>
	<path class="st0" d="M95,364.3c2-13.3,7-9.2,10-5.1c1.2,1.7,3.8,1.6,4.9-0.2c7.8-12.7,10.7-6.2,11.5-3.2c0.2,0.8,0.8,1.4,1.6,1.7
		l0,0c1,0.3,2,0,2.7-0.8c11-14.2,12.7-3.7,12.9,2.6c0,1.5,1.7,2.3,3,1.5c12.1-8.3,9.2,13.9,9.2,13.9c6.1,1.1,9.7,7.8,11.5,12.3
		c0.8,2-0.7,4.1-2.8,4.1H83.2C72.6,369.3,95,364.3,95,364.3z M601.3,364.3c-2-13.3-7-9.2-10-5.1c-1.2,1.7-3.8,1.6-4.9-0.2
		c-7.8-12.7-10.7-6.2-11.5-3.2c-0.2,0.8-0.8,1.4-1.6,1.7l0,0c-1,0.3-2,0-2.7-0.8c-11-14.2-12.7-3.7-12.9,2.6c0,1.5-1.7,2.3-3,1.5
		c-12.1-8.3-9.2,13.9-9.2,13.9c-6.1,1.1-9.7,7.8-11.5,12.3c-0.8,2,0.7,4.1,2.8,4.1h76.2C623.7,369.3,601.3,364.3,601.3,364.3z
		 M639.5,25c-4.1,27.8-13.3,86-37.3,106.2c-14.3,12-32.7,23.9-46.2,32.4c-7.5,4.7-14.6,10.2-22,15c-4,2.6-8.2,5-12.5,7.1
		c-3,1.4-9,5.2-12.3,4.3c-1.3-0.3-2.4-1.2-3.5-2s-2.3-1.6-3.6-1.8c-2.3-0.4-3.2,1-3.7,2.9c-0.6,2.4-0.2,5,1,7.2
		c13.6,24.4,22.7,52,25,79.8c0.9,10.9-0.4,21.7,0.2,32.5c0.6,10.3,1.5,20.6,3.9,30.6c0.6,2.6,1.3,5.2,2.1,7.7c0.4,1.3,2.2,7.3-0.6,8
		c-0.5,0.1-1,0-1.4-0.1c-13.1-3.5-24.7-7.3-37.9-1.4c-8.9,4-13.2,10.6-18.3,18.7c-1.9,3.1-3.6,6.3-5.1,9.6c-0.7,1.7-1.3,3.4-2,5.1
		c-0.1,0.4-0.8,4.5-0.8,4.5s-26.3-0.1-31.7-0.1c-10.8-0.1-21.6-0.1-32.4-0.1c-5.9,0-11.8-0.1-17.7-0.1l0.8-7.2c0.2,0,0.4,0,0.7,0
		c8,0,16.9-3,25.2-12.4c0.8-0.9,0.7-2.3-0.2-3.2c-0.9-0.8-2.3-0.7-3.2,0.2c-18.9,21.6-41.1,5-43.4,3.2c-1.7-1.9-13.3-13.6-37.2,3.5
		c-6.4,4.6-12.9,6.4-19.1,5.3c-11.1-2-18.3-12.4-18.4-12.5c-0.7-1-2.1-1.3-3.1-0.6c-1,0.7-1.3,2.1-0.6,3.1
		c0.3,0.5,8.3,12.1,21.2,14.4c1.5,0.3,3,0.4,4.5,0.4c0.8,0,1.5,0,2.3-0.1l0.2,5.6c-6.9,0-13.8-0.1-20.8-0.2
		c-14.7-0.2-29.3-0.5-44-0.7c-5.6-0.1-11.3-0.3-16.8-0.3c0.3-11.5-7.8-23.9-16.3-30.9c-10.4-8.6-25.5-9.5-38.1-6.4
		c-2.9,0.7-10.8,5.4-13,2c-1.5-2.4,3.3-6.9,4-9.1c4.5-14.2,5.3-30.1,6.8-44.8c2-19.7,1.2-39.3,4.7-58.8c1.5-8.3,3.8-16.6,7.2-24.3
		c1.7-3.9,3.7-7.7,6-11.3c1.9-3,4.3-5.6,6.1-8.7c1.4-2.2,5.6-11,0.2-11.3c-4.2-0.2-5.2,3.5-12.4,2.6c-8.8-1.1-17.5-6.7-24.7-11.5
		c-7.2-4.7-13.9-10-21.2-14.6c-13.5-8.5-36.5-22.5-49.6-35.8c-21-21.4-35.6-96.9-31.8-108c0,0,69.5-1.8,180.2,129.2
		c5.6,6.6,15,8.6,22.9,4.8c2.6-1.3,5.3-2.5,8-3.7c18.9-8.1,49.2-14.1,69.7-15.4c23.5-1.6,47.2,1.3,69.6,8.7
		c8.2,2.7,20.6,8.2,28.3,12c7.8,3.9,18.4-2.6,23.8-9.3C539.7,47.3,607,23.3,632.1,18C636.9,17,640.3,20.1,639.5,25z M279.6,298
		c0-19.3-15.7-35-35-35c-19.3,0-35,15.7-35,35s15.7,35,35,35C263.9,332.9,279.6,317.3,279.6,298z M355.8,318.4h-8.2h-8.2
		c-4,0-6.4,4.4-4.3,7.7l3.8,6.1c4.3,5.8,13,5.8,17.3,0l3.8-6.1C362.2,322.8,359.8,318.4,355.8,318.4z M487.1,298
		c0-19.3-15.7-35-35-35c-19.3,0-35,15.7-35,35s15.7,35,35,35C471.5,332.9,487.1,317.3,487.1,298z"/>
	<path class="st1" d="M171.1,390.9c0,0-12.1-9.7-10.8-23.3c0,0,47.5-32.9,63.5,23.4L171.1,390.9z M524.4,390.9
		c0,0,12.1-9.7,10.8-23.3c0,0-47.5-32.9-63.5,23.4L524.4,390.9z M379,391.9l0.2-4.9c0.1-1.8-1.1-3.3-2.8-3.7c-4-0.8-11-2.9-14.7-7.7
		c-5.4-6.9-20.3-7.8-28,0.4c-4.7,5.1-10.1,6.7-13.6,7.2c-2.1,0.3-3.6,2.1-3.6,4.2v4.2L379,391.9z"/>
	<path class="st2" d="M269.1,286.5c0,8.9-7.2,16-16,16c-8.9,0-16-7.2-16-16c0-8.9,7.2-16,16-16C262,270.5,269.1,277.7,269.1,286.5z
		 M442.6,270.5c-8.9,0-16,7.2-16,16c0,8.9,7.2,16,16,16c8.9,0,16-7.2,16-16C458.6,277.7,451.4,270.5,442.6,270.5z"/>
	<path class="st3" d="M267,306c0,0.4,0.1,0.9,0.1,1.3c0,11.4-9.2,20.6-20.6,20.6c-10.5,0-19.1-7.8-20.4-17.9
		c5.4,1.5,12.1,2.2,19.2,1.7C253.8,311.1,261.4,309,267,306z M428.6,306c0,0.4-0.1,0.9-0.1,1.3c0,11.4,9.2,20.6,20.6,20.6
		c10.5,0,19.1-7.8,20.4-17.9c-5.4,1.5-12.1,2.2-19.2,1.7C441.9,311.1,434.2,309,428.6,306z"/>
</g>
</svg>
